<svg xmlns="http://www.w3.org/2000/svg" viewBox="0 0 262.50067 262.50061"><path fill="#555" d="M150.48553,465.483A131.25031,131.25031,0,1,0,281.7359,596.73328,131.2503,131.2503,0,0,0,150.48553,465.483Zm73.434,201.65711a14.04118,14.04118,0,0,1-14,14H137.18713L100.5506,705.7948V681.14008H93.56946a14.04122,14.04122,0,0,1-14-14V529.80884a14.04122,14.04122,0,0,1,14-14h4.39441c5.74859,1.47027,14.48437,6.8551,14.48437,26.0473H223.91956ZM124.78015,527.65326c0-23.83-13.467-26.38074-17.95862-26.56982-.93835.01068-1.44555.01666-1.44555.01666a11.346,11.346,0,0,1,1.44555-.01666c11.37409-.1294,86.96479-.95557,112.57282-.36036,27.72064.64429,25.89624,26.93018,25.89624,26.93018Z" transform="translate(-19.23523 -465.48297)"/><rect x="81.59509" y="99.35908" width="100" height="20" rx="9.99999" fill="#555"/><rect x="81.59509" y="131.67" width="100" height="20" rx="9.99999" fill="#555"/><rect x="81.59509" y="163.98092" width="100" height="20" rx="9.99999" fill="#555"/></svg>