<svg id="skull" data-name="skull" xmlns="http://www.w3.org/2000/svg" viewBox="0 0 480 480"><defs><style>.cls-1{fill:#DB2777;}</style></defs><title>SKULL</title><path class="cls-1" d="M240.57,0a129.36,129.36,0,0,0-89,223.3v5.78c0,30.38,21.88,55,48.87,55h80.16c27,0,48.88-24.63,48.88-55V223.3A129.35,129.35,0,0,0,240.57,0ZM211.9,181.45a35.4,35.4,0,1,1-27.49-57.71H223s5-.08,5,3.5-2.2,38.73-16.14,54.22Zm36.41,40.36a9,9,0,0,1-7.74-4.47,9,9,0,1,1-15-9.88h0l.2-.21a8.55,8.55,0,0,1,1.09-1.16l13.71-14.62,13.7,14.62a8.78,8.78,0,0,1,1.11,1.17l.18.2v0a8.86,8.86,0,0,1,1.78,5.32A9,9,0,0,1,248.31,221.81Zm48.41-27.24a35.31,35.31,0,0,1-27.49-13.12h0c-13.94-15.49-16.13-50.64-16.13-54.22s5-3.5,5-3.5h38.62a35.42,35.42,0,0,1,0,70.83Z"/><path class="cls-1" d="M431.71,355.72A37.71,37.71,0,0,0,395.1,384.5L287.7,341.66,395.33,294.4a37.68,37.68,0,1,0,62.44-34.07,37.88,37.88,0,0,0-9.8-6.41,37.7,37.7,0,1,0-69.27,7.87L240.06,322.67,100.52,267a37.26,37.26,0,0,0,5.08-18.72A37.72,37.72,0,1,0,32,259.86a37.7,37.7,0,1,0,53.74,40.61l107.38,42.82L89.54,388.77a37.35,37.35,0,0,0-11.28-19.15A37.72,37.72,0,1,0,37.46,432a37.7,37.7,0,1,0,67.85-10.22l135.44-59.48L381,418.2a37.7,37.7,0,1,0,69.25,20.6,37.75,37.75,0,0,0-1.82-11.56,37.7,37.7,0,0,0-16.67-71.52Z"/></svg>